<?xml version="1.0" encoding="UTF-8" standalone="no"?>
<svg
   xmlns:dc="http://purl.org/dc/elements/1.1/"
   xmlns:cc="http://creativecommons.org/ns#"
   xmlns:rdf="http://www.w3.org/1999/02/22-rdf-syntax-ns#"
   xmlns:svg="http://www.w3.org/2000/svg"
   xmlns="http://www.w3.org/2000/svg"
   xmlns:sodipodi="http://sodipodi.sourceforge.net/DTD/sodipodi-0.dtd"
   xmlns:inkscape="http://www.inkscape.org/namespaces/inkscape"
   width="53.057777mm"
   height="20.909452mm"
   viewBox="0 0 53.057777 20.909452"
   version="1.1"
   id="svg2352"
   inkscape:version="1.0.1 (3bc2e813f5, 2020-09-07)"
   sodipodi:docname="logo asdp.svg">
  <defs
     id="defs2346" />
  <sodipodi:namedview
     id="base"
     pagecolor="#ffffff"
     bordercolor="#666666"
     borderopacity="1.0"
     inkscape:pageopacity="0.0"
     inkscape:pageshadow="2"
     inkscape:zoom="1.4"
     inkscape:cx="-12.231222"
     inkscape:cy="19.77477"
     inkscape:document-units="mm"
     inkscape:current-layer="layer1"
     inkscape:document-rotation="0"
     showgrid="false"
     fit-margin-top="0"
     fit-margin-left="0"
     fit-margin-right="0"
     fit-margin-bottom="0"
     inkscape:window-width="1366"
     inkscape:window-height="728"
     inkscape:window-x="0"
     inkscape:window-y="0"
     inkscape:window-maximized="0" />
  <metadata
     id="metadata2349">
    <rdf:RDF>
      <cc:Work
         rdf:about="">
        <dc:format>image/svg+xml</dc:format>
        <dc:type
           rdf:resource="http://purl.org/dc/dcmitype/StillImage" />
        <dc:title></dc:title>
      </cc:Work>
    </rdf:RDF>
  </metadata>
  <g
     inkscape:label="Lapis 1"
     inkscape:groupmode="layer"
     id="layer1"
     transform="translate(13.677698,-99.914438)">
    <path
       d="m 31.824637,112.40893 c -0.52846,0 -1.009298,0.21131 -1.451681,0.63676 -0.439209,0.42545 -0.722842,0.96202 -0.856192,1.60726 -0.125235,0.62018 -0.05856,1.14582 0.202848,1.56845 0.261409,0.42545 0.653344,0.63958 1.170517,0.63958 0.503415,0 0.959556,-0.21131 1.373717,-0.63112 0.411691,-0.42263 0.684389,-0.95109 0.814916,-1.58785 0.136173,-0.6731 0.09172,-1.2125 -0.136173,-1.62137 -0.225425,-0.40851 -0.597958,-0.61171 -1.117952,-0.61171 m -1.810456,-0.8816 -0.161219,1.09855 c 0.328435,-0.39228 0.695325,-0.68968 1.101373,-0.89252 0.408869,-0.20603 0.845254,-0.30586 1.312334,-0.30586 0.80927,0 1.401585,0.2861 1.776941,0.85901 0.375354,0.57574 0.467429,1.33491 0.275519,2.27754 -0.200377,0.98707 -0.612069,1.77976 -1.2319,2.38054 -0.620183,0.59761 -1.337733,0.89817 -2.155119,0.89817 -0.500591,0 -0.909463,-0.0974 -1.220964,-0.2921 -0.314325,-0.19755 -0.539399,-0.50341 -0.6731,-0.9204 -0.0053,0.10266 -0.01376,0.20285 -0.02469,0.30022 -0.0113,0.0974 -0.02222,0.19755 -0.03634,0.30021 -0.01939,0.10301 -0.0388,0.20038 -0.05256,0.30057 -0.01693,0.0974 -0.03352,0.19156 -0.05292,0.28645 l -0.519996,2.54988 h -1.162402 l 1.248474,-6.1094 c 0.04727,-0.23072 0.0889,-0.45614 0.130878,-0.68122 0.04163,-0.22542 0.08608,-0.45332 0.13335,-0.68403 0.03881,-0.22825 0.07761,-0.45614 0.113949,-0.68157 0.03881,-0.22507 0.07232,-0.45297 0.100189,-0.68404 z m -6.376104,0.8816 c -0.520348,0 -0.990248,0.20849 -1.410055,0.63112 -0.422626,0.42015 -0.700616,0.96237 -0.837141,1.62701 -0.130527,0.64487 -0.07761,1.17616 0.161573,1.58785 0.239183,0.41134 0.617008,0.61736 1.137356,0.61736 0.525286,0 1.003652,-0.20884 1.429102,-0.63147 0.42545,-0.41981 0.703792,-0.94827 0.834319,-1.58785 0.130529,-0.63677 0.0695,-1.17052 -0.183444,-1.60162 -0.252941,-0.42827 -0.631473,-0.6424 -1.13171,-0.6424 m 3.690054,-3.82623 -1.281994,6.27627 c -0.09737,0.48366 -0.18909,0.96767 -0.269875,1.45415 -0.08326,0.48401 -0.161218,0.96767 -0.23354,1.4545 h -1.123595 l 0.214487,-1.04846 c -0.325612,0.38383 -0.681567,0.66746 -1.073502,0.84808 -0.389466,0.18345 -0.825852,0.27552 -1.312685,0.27552 -0.831498,0 -1.437571,-0.28363 -1.815748,-0.85372 -0.375357,-0.57009 -0.464257,-1.34056 -0.267052,-2.31105 0.197554,-0.96767 0.608894,-1.75189 1.2319,-2.35232 0.623004,-0.60078 1.343377,-0.89817 2.160762,-0.89817 0.442032,0 0.820208,0.0886 1.131713,0.27234 0.308679,0.18345 0.547862,0.45332 0.714727,0.8121 0.01376,-0.0699 0.02506,-0.139 0.03634,-0.21132 0.01093,-0.0723 0.02222,-0.14746 0.03881,-0.2226 0.0056,-0.0695 0.01376,-0.13899 0.02223,-0.21131 0.0113,-0.0723 0.02506,-0.14182 0.03881,-0.21132 l 0.625827,-3.07269 z m -8.373179,3.09774 -0.288925,0.97049 c -0.08361,-0.0416 -0.164396,-0.0808 -0.24483,-0.11395 -0.07796,-0.0363 -0.155926,-0.0642 -0.23636,-0.0892 -0.111125,-0.036 -0.225425,-0.061 -0.342193,-0.0776 -0.113948,-0.0169 -0.239184,-0.025 -0.375357,-0.025 -0.316793,0 -0.583848,0.0695 -0.803627,0.21132 -0.219781,0.13899 -0.353131,0.32808 -0.403225,0.56727 -0.04163,0.21131 0.01093,0.38911 0.161219,0.5281 0.150283,0.14217 0.333727,0.27552 0.556331,0.40323 0.0695,0.0335 0.138994,0.0699 0.205669,0.10865 0.0695,0.0363 0.141817,0.078 0.219781,0.1196 0.305859,0.16968 0.572911,0.381 0.809271,0.63112 0.23354,0.25047 0.303038,0.60642 0.208491,1.06503 -0.116768,0.57009 -0.417335,1.02905 -0.903816,1.3709 -0.486834,0.34501 -1.070679,0.51752 -1.751894,0.51752 -0.194733,0 -0.375356,-0.0113 -0.536575,-0.0307 -0.161218,-0.0222 -0.317148,-0.0529 -0.4699,-0.0974 -0.09737,-0.0251 -0.189441,-0.0557 -0.275518,-0.0889 -0.08608,-0.0335 -0.175332,-0.0751 -0.267055,-0.12806 l 0.208846,-1.03152 c 0.214136,0.11959 0.411337,0.20849 0.589492,0.27234 0.1778,0.0639 0.358775,0.10584 0.542219,0.12242 0.04163,0.008 0.08326,0.0138 0.125235,0.0138 h 0.127706 c 0.347485,0 0.650875,-0.0776 0.90946,-0.23072 0.255765,-0.1531 0.408517,-0.34749 0.45579,-0.58667 0.04198,-0.19473 -0.0081,-0.3616 -0.147108,-0.49777 -0.136525,-0.13617 -0.311502,-0.26705 -0.52564,-0.39476 -0.07514,-0.0416 -0.153104,-0.0864 -0.227893,-0.12805 -0.07796,-0.0416 -0.155927,-0.0889 -0.239184,-0.139 -0.30339,-0.18062 -0.57291,-0.39476 -0.80645,-0.64523 -0.23354,-0.25012 -0.305858,-0.59796 -0.214135,-1.03999 0.111125,-0.55351 0.400402,-0.99272 0.861835,-1.3208 0.461785,-0.32808 1.020585,-0.4893 1.673932,-0.4893 0.10301,0 0.200377,0 0.2921,0.005 0.09454,0.003 0.186266,0.0141 0.275518,0.0307 0.13335,0.0166 0.2667,0.0445 0.402873,0.0833 0.136525,0.0392 0.281162,0.0836 0.433917,0.1337 m -7.196667,3.13937 c -0.05574,-0.008 -0.111125,-0.0166 -0.16122,-0.0194 -0.05009,-0.006 -0.09737,-0.006 -0.138994,-0.006 -0.05009,-0.008 -0.09737,-0.0138 -0.144639,-0.0138 h -0.172508 c -0.76447,0 -1.359606,0.0974 -1.787878,0.29457 -0.42545,0.19473 -0.681567,0.49213 -0.762,0.89288 -0.05856,0.28893 0.0028,0.52282 0.189089,0.70062 0.183444,0.17815 0.456142,0.26705 0.812094,0.26705 0.672748,0 1.173339,-0.20849 1.501423,-0.63112 0.328083,-0.42016 0.550686,-0.9151 0.664633,-1.48519 m -2.905831,-2.81976 c 0.113948,-0.0582 0.225073,-0.11394 0.330906,-0.15839 0.108303,-0.0473 0.216958,-0.0917 0.328083,-0.13618 0.258586,-0.0917 0.511528,-0.16157 0.764822,-0.20884 0.25012,-0.0469 0.511528,-0.0691 0.784225,-0.0691 0.578203,0 1.042812,0.1083 1.39312,0.3309 0.350309,0.21943 0.564444,0.53658 0.642409,0.94263 0.03034,0.18908 0.03316,0.41416 0.0081,0.68403 -0.02506,0.2667 -0.08043,0.61736 -0.169688,1.05093 l -0.247296,1.21249 c -0.03634,0.17816 -0.07232,0.35596 -0.108656,0.52847 -0.03598,0.17533 -0.06668,0.35313 -0.09454,0.53128 -0.03598,0.1778 -0.06668,0.35313 -0.09455,0.52811 -0.02752,0.17533 -0.04974,0.35031 -0.0695,0.53128 h -1.059392 c 0.01411,-0.0695 0.02223,-0.12524 0.02787,-0.16686 0.0028,-0.0416 0.01093,-0.0864 0.0194,-0.12806 0.0056,-0.0332 0.01411,-0.0667 0.0194,-0.0945 0.0056,-0.0307 0.01129,-0.0639 0.01976,-0.0974 0.0081,-0.0416 0.01658,-0.0776 0.02223,-0.1083 0.0053,-0.0307 0.01093,-0.0614 0.0194,-0.0945 0.01093,-0.0614 0.02505,-0.11959 0.04163,-0.17816 0.01658,-0.061 0.03351,-0.1277 0.05009,-0.20567 -0.319969,0.40041 -0.667455,0.69251 -1.039989,0.87313 -0.372533,0.18344 -0.803627,0.27552 -1.287638,0.27552 -0.653345,0 -1.145823,-0.16686 -1.473906,-0.50341 -0.325261,-0.33655 -0.430742,-0.78987 -0.313972,-1.35996 0.13335,-0.65335 0.517172,-1.15676 1.156758,-1.50989 0.636764,-0.35313 1.479197,-0.53093 2.524831,-0.53093 h 0.0695 0.05856 c 0.100189,0 0.208492,0.002 0.322439,0.008 0.113947,0.003 0.250472,0.008 0.411692,0.0166 0.09984,-0.52564 0.05009,-0.91758 -0.150284,-1.17334 -0.197555,-0.25294 -0.561622,-0.381 -1.090083,-0.381 -0.194733,0 -0.381,0.0138 -0.555978,0.0445 -0.17533,0.0307 -0.355953,0.078 -0.53975,0.14746 -0.136172,0.0416 -0.275167,0.0974 -0.416983,0.16404 -0.141817,0.0695 -0.289278,0.15029 -0.444853,0.24201 z"
       style="fill:#f47116;fill-opacity:1;fill-rule:nonzero;stroke:none;stroke-width:0.352777"
       id="path878" />
    <path
       d="m 23.437697,120.79022 0.08079,-0.26987 c 0.0053,0 0.01093,0.003 0.01659,0.003 0.0056,0.003 0.0085,0.006 0.01659,0.006 0.02222,0.006 0.04445,0.0113 0.0642,0.0141 0.02222,0.005 0.04445,0.005 0.0695,0.005 0.09172,0 0.164042,-0.0222 0.219427,-0.0695 0.05292,-0.0445 0.10019,-0.10019 0.141817,-0.16405 l -0.336196,-1.44321 h 0.452967 l 0.15875,0.83714 c 0.0028,0.0138 0.0056,0.0303 0.01093,0.0444 0.0028,0.0166 0.0056,0.0335 0.0085,0.0473 0.0028,0.0166 0.0028,0.0332 0.0056,0.0473 0.0028,0.0166 0.0056,0.0332 0.0081,0.0473 0.0028,-0.008 0.0085,-0.0194 0.0141,-0.0307 0.0053,-0.008 0.01093,-0.0194 0.01376,-0.0279 0.01659,-0.0275 0.03069,-0.0554 0.04445,-0.0861 0.01659,-0.0279 0.03069,-0.0557 0.04727,-0.0833 l 0.461785,-0.79551 h 0.416984 l -0.917575,1.46826 c -0.08325,0.13053 -0.1778,0.24483 -0.286454,0.33937 -0.105482,0.0974 -0.250121,0.14464 -0.431096,0.14464 -0.05009,0 -0.09737,-0.003 -0.144637,-0.0113 -0.04445,-0.006 -0.0889,-0.0138 -0.13335,-0.0222 z M 22.712033,120.248 h -0.408869 l 0.18909,-0.96202 c 0.0056,-0.0335 0.01376,-0.0698 0.01939,-0.10302 0.0028,-0.0335 0.0113,-0.0695 0.01659,-0.10548 0.0056,-0.0335 0.0113,-0.067 0.01693,-0.10018 0.0053,-0.0335 0.01093,-0.0699 0.01659,-0.10302 h 0.36689 l -0.05821,0.34467 c 0.05009,-0.0942 0.116769,-0.1778 0.200377,-0.25012 0.08608,-0.0723 0.18909,-0.10583 0.316796,-0.10583 h 0.03916 c 0.01376,0 0.02469,0.003 0.0388,0.006 0.0053,0 0.01376,0.003 0.01939,0.003 0.0085,0 0.01376,0.003 0.01939,0.006 l -0.06667,0.3309 c -0.02223,-0.006 -0.04445,-0.008 -0.06668,-0.0141 -0.02506,-0.003 -0.04727,-0.005 -0.07232,-0.005 -0.141817,0 -0.247298,0.0444 -0.314325,0.12771 -0.0695,0.0836 -0.116771,0.17533 -0.141817,0.27552 -0.0028,0.008 -0.0056,0.0194 -0.0085,0.0303 -0.0028,0.0113 -0.0053,0.0222 -0.0053,0.0307 l -0.0056,0.0279 z m -1.326444,0 h -0.411692 l 0.18909,-0.96202 c 0.0085,-0.0335 0.0141,-0.0698 0.01939,-0.10302 0.0056,-0.0335 0.0113,-0.0695 0.01976,-0.10548 0.0053,-0.0335 0.01093,-0.067 0.01376,-0.10018 0.0056,-0.0335 0.0113,-0.0699 0.01659,-0.10302 H 21.6022 l -0.05821,0.34467 c 0.04727,-0.0942 0.116768,-0.1778 0.200377,-0.25012 0.08326,-0.0723 0.188735,-0.10583 0.313973,-0.10583 h 0.04198 c 0.01093,0 0.02506,0.003 0.03598,0.006 0.0085,0 0.01659,0.003 0.02222,0.003 0.0056,0 0.0113,0.003 0.01693,0.006 l -0.0642,0.3309 c -0.02222,-0.006 -0.04445,-0.008 -0.0695,-0.0141 -0.02222,-0.003 -0.04727,-0.005 -0.0695,-0.005 -0.144637,0 -0.24765,0.0444 -0.317145,0.12771 -0.06668,0.0836 -0.113948,0.17533 -0.141817,0.27552 0,0.008 -0.0028,0.0194 -0.0053,0.0303 -0.0028,0.0113 -0.0056,0.0222 -0.0085,0.0307 l -0.0056,0.0279 z m -1.106665,-0.82021 c 0,-0.006 0.0024,-0.0113 0.0024,-0.0169 v -0.0166 c 0,-0.0109 0.0028,-0.0222 0.0028,-0.0335 v -0.0332 c -0.0053,-0.0667 -0.02787,-0.12241 -0.06668,-0.16968 -0.04163,-0.0473 -0.105834,-0.0723 -0.200025,-0.0723 -0.1143,0 -0.208844,0.0363 -0.281162,0.10301 -0.07197,0.0695 -0.122063,0.14993 -0.149932,0.23918 z m 0.188738,0.45297 -0.05539,0.30868 c -0.04445,0.0169 -0.09172,0.0307 -0.138993,0.042 -0.04445,0.0109 -0.09172,0.0194 -0.139348,0.0279 -0.04974,0.005 -0.09701,0.0109 -0.141462,0.0166 -0.04727,0.003 -0.09455,0.006 -0.142172,0.006 -0.216603,0 -0.383468,-0.0448 -0.505883,-0.13088 -0.119592,-0.0889 -0.186267,-0.21414 -0.197554,-0.37536 0,-0.0335 0,-0.0667 0.0028,-0.10301 0.0028,-0.036 0.0085,-0.0723 0.01659,-0.11112 0.03916,-0.20567 0.141816,-0.37818 0.303035,-0.51717 0.161573,-0.139 0.364421,-0.20567 0.612071,-0.20567 0.194733,0 0.336196,0.0444 0.428271,0.13617 0.09172,0.0917 0.141816,0.20849 0.149931,0.34748 0.0028,0.0363 0.0028,0.0723 0,0.11113 -0.0053,0.0392 -0.01093,0.078 -0.01939,0.11959 0,0.0113 -0.0024,0.0222 -0.0024,0.0335 -0.0028,0.008 -0.0056,0.0194 -0.0085,0.0279 -0.0028,0.005 -0.0028,0.0109 -0.0056,0.0166 -0.0028,0.003 -0.0028,0.008 -0.0056,0.0138 0,0.006 -0.0028,0.0113 -0.0028,0.0169 -0.0024,0.003 -0.0024,0.008 -0.0053,0.0138 h -1.062567 c -0.0028,0.0113 -0.0028,0.0222 -0.0028,0.0307 v 0.0307 c 0.0085,0.0917 0.0501,0.16122 0.122415,0.20849 0.07514,0.0501 0.169685,0.0751 0.281165,0.0751 0.0889,0 0.1778,-0.0141 0.263877,-0.042 0.08643,-0.0251 0.169685,-0.0582 0.255765,-0.0974 m -2.099382,0.36724 h -0.408868 l 0.219778,-1.10384 h -0.317189 l 0.05009,-0.26141 H 18.2294 v -0.008 -0.006 c 0.0056,-0.025 0.01093,-0.0501 0.01659,-0.0751 0.0056,-0.0247 0.0113,-0.0497 0.01939,-0.0723 0.0141,-0.0526 0.03069,-0.10265 0.05292,-0.15275 0.02223,-0.0501 0.05292,-0.0974 0.08925,-0.13899 0.04727,-0.0501 0.102658,-0.0892 0.16651,-0.11677 0.06138,-0.0307 0.125238,-0.0501 0.191913,-0.0614 0.02506,-0.003 0.05292,-0.006 0.07796,-0.008 0.02506,-0.003 0.0501,-0.003 0.07796,-0.003 0.03598,0 0.07232,0.003 0.108301,0.005 0.03352,0.003 0.0695,0.0113 0.105834,0.0198 l -0.08078,0.28645 c -0.0056,-0.003 -0.01376,-0.003 -0.01939,-0.006 -0.0056,-0.003 -0.01376,-0.003 -0.02222,-0.003 -0.0113,-0.003 -0.02506,-0.006 -0.03634,-0.009 h -0.04163 c -0.0889,0 -0.152752,0.0251 -0.19191,0.078 -0.03881,0.0501 -0.06668,0.10831 -0.08608,0.17251 -0.0056,0.0166 -0.0085,0.0332 -0.0113,0.0501 -0.0053,0.0166 -0.0081,0.0303 -0.01093,0.0473 h 0.358775 l -0.05009,0.26141 h -0.35877 z m -2.090959,-0.62577 h -0.0113 c -0.0028,-0.003 -0.0085,-0.003 -0.0113,-0.003 h -0.01376 -0.0113 -0.05009 c -0.03034,0 -0.06668,0 -0.102658,0.003 -0.03881,0 -0.07796,0.003 -0.113948,0.006 -0.08078,0.008 -0.155927,0.0307 -0.225425,0.0614 -0.06949,0.0303 -0.113945,0.0861 -0.127704,0.16122 v 0.008 c -0.0028,0.003 -0.0028,0.008 -0.0028,0.0113 0,0.003 -0.0028,0.006 -0.0028,0.008 0.0028,0.003 0.0028,0.008 0.0028,0.0113 0.0028,0.0444 0.02787,0.078 0.0695,0.10301 0.04163,0.0222 0.0889,0.036 0.144637,0.036 0.127707,0 0.230717,-0.0416 0.305859,-0.12241 0.07514,-0.0804 0.125238,-0.16933 0.147463,-0.2667 0,-0.003 0.0028,-0.006 0.0028,-0.009 z m 0.261057,0.62583 h -0.364067 l 0.03316,-0.20567 c -0.05539,0.061 -0.122412,0.11113 -0.197201,0.14993 -0.07796,0.0363 -0.155927,0.0586 -0.239184,0.0695 -0.01693,0 -0.03351,0.003 -0.05009,0.003 -0.01659,0 -0.03352,0.003 -0.0501,0.003 -0.130878,0 -0.242003,-0.0279 -0.330903,-0.078 -0.0889,-0.0501 -0.136173,-0.13052 -0.14464,-0.23636 0.0028,-0.0194 0.0028,-0.0388 0.0028,-0.0554 0,-0.0198 0.0028,-0.0363 0.0085,-0.0557 0.02752,-0.14464 0.102658,-0.2473 0.22225,-0.3115 0.122412,-0.0639 0.253293,-0.10266 0.394758,-0.11959 0.0448,-0.005 0.09207,-0.0109 0.136525,-0.0138 0.04445,0 0.0889,-0.003 0.130527,-0.003 0.02787,0 0.05292,0 0.07514,0.003 0.02506,0 0.05009,0.003 0.07514,0.003 0.0113,0 0.02506,0 0.03634,0.003 h 0.03598 c 0.0056,-0.0194 0.0081,-0.0392 0.0081,-0.0557 v -0.0501 c -0.0053,-0.0667 -0.03034,-0.11395 -0.07761,-0.14746 -0.0501,-0.0332 -0.122415,-0.0497 -0.219781,-0.0497 -0.03316,0 -0.06385,0.002 -0.09454,0.005 -0.03069,0.006 -0.06385,0.008 -0.09455,0.0141 -0.05856,0.0138 -0.113945,0.0303 -0.169685,0.0526 -0.05821,0.0222 -0.111125,0.0501 -0.161219,0.078 l 0.04727,-0.30586 c 0.04727,-0.0166 0.09455,-0.0307 0.141816,-0.0416 0.04727,-0.0113 0.09455,-0.0222 0.14464,-0.0307 0.04727,-0.008 0.09454,-0.0138 0.141817,-0.0166 0.04727,-0.006 0.09454,-0.006 0.141816,-0.006 h 0.04445 c 0.01376,0 0.02787,0 0.04163,0.003 0.09208,0.006 0.178155,0.0222 0.261409,0.0529 0.08361,0.0275 0.147463,0.0776 0.189089,0.14181 0.0141,0.0251 0.02506,0.0501 0.03351,0.0751 0.0056,0.0275 0.01093,0.0554 0.01376,0.0833 0,0.0251 0,0.0501 -0.0028,0.078 0,0.025 -0.0053,0.0529 -0.0081,0.0776 -0.0028,0.0141 -0.0056,0.0279 -0.0085,0.0392 0,0.0138 -0.0028,0.0279 -0.0056,0.0388 -0.02787,0.13618 -0.05256,0.26988 -0.07761,0.40323 -0.02506,0.13617 -0.04727,0.26987 -0.06421,0.40605 m -1.540611,-1.62413 h -0.419803 l 0.06385,-0.3362 h 0.422982 z m -0.32526,1.62418 h -0.408868 l 0.269875,-1.37371 h 0.408868 z m -1.974497,-0.0363 0.07796,-0.30021 c 0.05574,0.0279 0.116768,0.0501 0.180975,0.0695 0.06668,0.0169 0.13335,0.0279 0.202848,0.0279 0.01939,0 0.0388,-0.003 0.05821,-0.003 0.01977,-0.003 0.04198,-0.005 0.0642,-0.0109 0.04445,-0.0113 0.08326,-0.0251 0.119592,-0.0473 0.03598,-0.0222 0.05821,-0.0529 0.0695,-0.0945 v -0.0141 -0.008 c -0.0028,-0.0307 -0.01939,-0.0557 -0.05292,-0.0751 -0.03352,-0.0194 -0.07514,-0.0363 -0.122415,-0.0529 -0.01939,-0.009 -0.0388,-0.0138 -0.05821,-0.0222 -0.02223,-0.008 -0.04163,-0.0138 -0.06385,-0.0222 -0.07267,-0.025 -0.142168,-0.0614 -0.2032,-0.10583 -0.06138,-0.0444 -0.09454,-0.10831 -0.10019,-0.19191 v -0.0445 c 0.0028,-0.0166 0.0056,-0.0332 0.0085,-0.0501 0.02222,-0.11924 0.0889,-0.21132 0.191913,-0.27235 0.105479,-0.0638 0.216958,-0.10583 0.33655,-0.12523 0.0388,-0.008 0.07761,-0.0138 0.113945,-0.0166 0.03316,-0.003 0.0695,-0.003 0.105482,-0.003 0.06421,0 0.128058,0.003 0.19191,0.0138 0.06386,0.0113 0.125238,0.0222 0.186267,0.0392 l -0.08043,0.26423 c -0.05009,-0.0141 -0.10301,-0.0251 -0.15875,-0.0363 -0.05256,-0.0109 -0.111125,-0.0166 -0.166862,-0.0166 -0.01939,0 -0.03881,0.003 -0.06103,0.003 -0.02222,0.003 -0.04445,0.006 -0.0695,0.008 -0.04163,0.008 -0.08079,0.0222 -0.116769,0.0416 -0.03634,0.0222 -0.05856,0.0497 -0.06668,0.0861 0,0.006 -0.0028,0.008 -0.0028,0.0109 0.0028,0.006 0.0028,0.008 0.0028,0.0113 0,0.0307 0.01939,0.0529 0.05256,0.0723 0.03351,0.0166 0.07514,0.0335 0.122412,0.0501 0.01976,0.006 0.03916,0.0113 0.06138,0.0194 0.01939,0.006 0.04163,0.0113 0.06103,0.0166 0.07514,0.0279 0.14464,0.0614 0.208491,0.10583 0.06138,0.0416 0.09737,0.1083 0.103011,0.19473 0,0.0138 0,0.0303 -0.0028,0.0473 -0.0028,0.0166 -0.0028,0.0332 -0.0056,0.0526 -0.02506,0.12806 -0.09454,0.22825 -0.205669,0.29492 -0.111125,0.0667 -0.233539,0.11113 -0.364418,0.13089 -0.02752,0.002 -0.05539,0.005 -0.08326,0.008 -0.03069,0 -0.05821,0.003 -0.08608,0.003 -0.07796,0 -0.15593,-0.006 -0.231072,-0.0166 -0.07232,-0.0113 -0.144637,-0.025 -0.216957,-0.042 m -0.61983,-0.78388 c 0,-0.006 0,-0.0113 0.0028,-0.0169 v -0.0166 c 0,-0.0109 0,-0.0222 0.0025,-0.0335 0,-0.0138 0,-0.0222 -0.0025,-0.0332 -0.0028,-0.0667 -0.02505,-0.12241 -0.06421,-0.16968 -0.04163,-0.0473 -0.108303,-0.0723 -0.200025,-0.0723 -0.1143,0 -0.208844,0.0363 -0.280811,0.10301 -0.07232,0.0695 -0.122414,0.14993 -0.150283,0.23918 z m 0.189088,0.45297 -0.05574,0.30868 c -0.04727,0.0169 -0.09172,0.0307 -0.138995,0.042 -0.04727,0.0109 -0.09454,0.0194 -0.141817,0.0279 -0.04727,0.005 -0.09454,0.0109 -0.141816,0.0166 -0.04727,0.003 -0.09172,0.006 -0.138995,0.006 -0.216958,0 -0.383822,-0.0448 -0.506236,-0.13088 -0.122414,-0.0889 -0.186266,-0.21414 -0.197555,-0.37536 -0.0025,-0.0335 0,-0.0667 0.0028,-0.10301 0.0028,-0.036 0.0085,-0.0723 0.01411,-0.11112 0.04163,-0.20567 0.141817,-0.37818 0.305858,-0.51717 0.16122,-0.139 0.364067,-0.20567 0.608895,-0.20567 0.194733,0 0.339372,0.0444 0.431094,0.13617 0.09172,0.0917 0.141817,0.20849 0.150284,0.34748 0.0025,0.0363 0.0025,0.0723 -0.0028,0.11113 -0.0028,0.0392 -0.0085,0.078 -0.01693,0.11959 0,0.0113 -0.0025,0.0222 -0.0053,0.0335 0,0.008 -0.0028,0.0194 -0.0085,0.0279 0,0.005 -0.0028,0.0109 -0.0028,0.0166 -0.0028,0.003 -0.0028,0.008 -0.0056,0.0138 0,0.006 -0.0028,0.0113 -0.0028,0.0169 -0.0025,0.003 -0.0053,0.008 -0.0053,0.0138 h -1.062214 c -0.0028,0.0113 -0.0028,0.0222 -0.0028,0.0307 v 0.0307 c 0.0081,0.0917 0.04727,0.16122 0.122061,0.20849 0.07514,0.0501 0.169686,0.0751 0.281164,0.0751 0.0889,0 0.1778,-0.0141 0.263877,-0.042 0.08361,-0.025 0.169687,-0.0582 0.256117,-0.0974 m -2.686403,-1.00647 -0.03598,0.21696 c 0.08326,-0.0808 0.172156,-0.14182 0.2667,-0.18098 0.09455,-0.0388 0.200378,-0.0582 0.317147,-0.0582 0.16122,0 0.275167,0.0307 0.339373,0.0946 0.06103,0.0638 0.09737,0.14746 0.102658,0.2473 0.0028,0.042 0,0.0864 -0.0053,0.1337 -0.0028,0.0473 -0.01129,0.0945 -0.02258,0.14464 l -0.14993,0.77576 h -0.40887 l 0.133703,-0.6925 c 0.0025,-0.0166 0.0081,-0.0332 0.01094,-0.0501 0.0028,-0.0194 0.0056,-0.036 0.0056,-0.0554 0.0028,-0.0169 0.0056,-0.0335 0.0056,-0.0501 v -0.0529 c -0.0056,-0.0557 -0.02222,-0.10584 -0.05292,-0.14464 -0.03351,-0.0388 -0.09172,-0.0582 -0.175331,-0.0582 -0.113947,0 -0.202847,0.036 -0.267052,0.10548 -0.06103,0.0695 -0.108303,0.14464 -0.136173,0.22789 -0.0081,0.0198 -0.01376,0.042 -0.01658,0.0614 -0.0056,0.0194 -0.01129,0.036 -0.01411,0.0557 L 9.350388,120.2492 H 8.941519 l 0.169686,-0.87595 c 0.01658,-0.0836 0.03351,-0.16686 0.04727,-0.25012 0.01376,-0.0836 0.02505,-0.16439 0.03598,-0.24765 z m -1.404408,0.68968 c 0.0028,-0.0141 0.0056,-0.025 0.0056,-0.0392 0.0028,-0.0138 0.0028,-0.0251 0.0028,-0.0388 0,-0.0109 0.0028,-0.0222 0.0028,-0.036 0,-0.0113 -0.0028,-0.025 -0.0028,-0.0392 -0.0056,-0.0804 -0.03069,-0.15275 -0.07796,-0.21696 -0.04727,-0.061 -0.125236,-0.0942 -0.236361,-0.0942 -0.113947,0 -0.214136,0.0388 -0.291747,0.11395 -0.07796,0.0748 -0.133703,0.1584 -0.166864,0.2473 -0.0056,0.0166 -0.0085,0.0335 -0.01411,0.0473 -0.0056,0.0141 -0.0081,0.0307 -0.01093,0.0444 -0.0056,0.0251 -0.0085,0.0529 -0.01129,0.078 v 0.078 c 0.0056,0.0833 0.03351,0.15557 0.08079,0.21695 0.05009,0.0639 0.127706,0.0945 0.239184,0.0945 0.113947,0 0.211314,-0.0363 0.286102,-0.11147 0.07514,-0.0723 0.130881,-0.15276 0.164395,-0.24166 0.0053,-0.0169 0.01093,-0.0335 0.01658,-0.0501 0.0056,-0.0198 0.01129,-0.0363 0.01376,-0.0529 m 0.420158,0.008 c -0.03916,0.21449 -0.147461,0.38383 -0.325613,0.51471 -0.174978,0.1277 -0.389114,0.19473 -0.636764,0.19473 -0.20567,0 -0.369711,-0.0501 -0.492125,-0.14464 -0.119592,-0.0974 -0.186267,-0.22542 -0.194734,-0.38664 -0.0028,-0.0307 -0.0028,-0.0639 0.0028,-0.0945 0.0028,-0.0335 0.0056,-0.0667 0.01129,-0.10301 0.04163,-0.21132 0.152753,-0.38347 0.328083,-0.51718 0.174978,-0.13335 0.386645,-0.1972 0.63112,-0.1972 0.211313,0 0.375355,0.0497 0.494947,0.14993 0.122414,0.0974 0.186619,0.2279 0.197555,0.38947 0.0028,0.0307 0.0028,0.061 0,0.0945 -0.0028,0.0303 -0.0085,0.0639 -0.01658,0.0998 m -2.50578,-0.002 c 0.0028,-0.0113 0.0056,-0.0226 0.0056,-0.0335 0.0028,-0.0113 0.0028,-0.0222 0.0028,-0.0363 v -0.0332 -0.0335 c -0.0056,-0.0748 -0.03069,-0.14182 -0.07514,-0.20003 -0.04445,-0.0586 -0.11677,-0.0889 -0.216606,-0.0889 -0.117122,0 -0.208844,0.036 -0.272697,0.10831 -0.06668,0.0723 -0.111125,0.1531 -0.136172,0.242 -0.0028,0.0109 -0.0056,0.0222 -0.01129,0.036 -0.0028,0.0113 -0.0056,0.0222 -0.0085,0.0335 -0.0025,0.0138 -0.0053,0.0307 -0.0053,0.0473 -0.0028,0.0138 -0.0028,0.0307 -0.0028,0.0473 v 0.025 0.0222 c 0.0056,0.0751 0.02787,0.139 0.0695,0.1972 0.04163,0.0557 0.111125,0.0864 0.208492,0.0864 0.111125,0 0.200378,-0.0363 0.272697,-0.10583 0.0695,-0.0695 0.119592,-0.14711 0.147109,-0.23354 0.0028,-0.0138 0.0085,-0.0251 0.01129,-0.0388 0.0056,-0.0141 0.0085,-0.0279 0.01093,-0.0416 m 0.281164,0.67839 H 5.985529 l 0.04163,-0.23354 c -0.06668,0.0833 -0.147461,0.14747 -0.242006,0.18909 -0.09172,0.0416 -0.19438,0.0638 -0.303036,0.0638 -0.186266,0 -0.319616,-0.0473 -0.403225,-0.13899 -0.08608,-0.0917 -0.130528,-0.20285 -0.138994,-0.33655 -0.0028,-0.036 -0.0028,-0.0751 0,-0.11395 0.0028,-0.0416 0.0085,-0.0808 0.01658,-0.12241 0,-0.003 0,-0.003 0.0028,-0.003 v -0.006 c 0.03634,-0.17216 0.119592,-0.33338 0.250472,-0.48084 0.13335,-0.14464 0.311503,-0.21696 0.54222,-0.21696 0.111125,0 0.202847,0.0194 0.277989,0.0639 0.07232,0.0416 0.128058,0.10584 0.161219,0.18662 0.0028,-0.0392 0.0056,-0.0808 0.01129,-0.11994 0.0053,-0.0416 0.01376,-0.0833 0.02222,-0.12206 l 0.119592,-0.60925 h 0.408516 l -0.313972,1.59914 c -0.0056,0.0222 -0.0085,0.0444 -0.01411,0.0667 -0.0028,0.0222 -0.0053,0.0445 -0.0081,0.0667 -0.0085,0.0448 -0.01693,0.0889 -0.02505,0.1337 -0.0056,0.0444 -0.01411,0.0889 -0.0194,0.13335 m -2.80035,-1.37371 -0.03351,0.21696 c 0.08079,-0.0808 0.169687,-0.14182 0.264231,-0.18098 0.09454,-0.0388 0.200378,-0.0582 0.317147,-0.0582 0.16122,0 0.275167,0.0307 0.33902,0.0945 0.06138,0.0639 0.09737,0.14746 0.103011,0.2473 0.0028,0.042 0,0.0864 -0.0028,0.1337 -0.0056,0.0473 -0.01376,0.0945 -0.02505,0.14464 l -0.149931,0.77576 h -0.40886 l 0.136172,-0.6925 c 0,-0.0166 0.0056,-0.0332 0.0085,-0.0501 0.0028,-0.0194 0.0053,-0.036 0.0053,-0.0554 0.0028,-0.0169 0.0056,-0.0335 0.0056,-0.0501 v -0.0529 c -0.0028,-0.0557 -0.02223,-0.10584 -0.05292,-0.14464 -0.03316,-0.0388 -0.09172,-0.0582 -0.174978,-0.0582 -0.113947,0 -0.2032,0.036 -0.264231,0.10548 -0.06385,0.0695 -0.111125,0.14464 -0.138994,0.22789 -0.0085,0.0198 -0.01376,0.042 -0.01658,0.0614 -0.0056,0.0194 -0.01129,0.036 -0.01411,0.0557 l -0.128058,0.65335 H 2.932256 l 0.169686,-0.87595 c 0.01658,-0.0836 0.03316,-0.16686 0.04727,-0.25012 0.01376,-0.0836 0.02505,-0.16439 0.03598,-0.24765 z M 2.693079,118.62383 H 2.273273 l 0.06385,-0.3362 h 0.422628 z m -0.325261,1.62418 H 1.958948 L 2.228823,118.8743 H 2.63734 Z"
       style="fill:#1c63b7;fill-opacity:1;fill-rule:nonzero;stroke:none;stroke-width:0.352777"
       id="path882" />
    <path
       d="m -13.677698,105.31492 c 28.600752,5.3781 24.587905,-13.13921 53.057777,-1.4545 -20.945123,-5.539321 -26.48726,16.11771 -53.057777,1.4545"
       style="fill:#1c63b7;fill-opacity:1;fill-rule:evenodd;stroke:none;stroke-width:0.352777"
       id="path886" />
  </g>
</svg>
